# xmcd
#
# Track frame offsets:
#	150
#	16574
#	29174
#	44468
#	59720
#	79376
#	88447
#	100137
#	126433
#	154629
#	182782
#	199639
#	230067
#	260495
#	280298
#	302042
#	329948
#
# Disc length: 4722 seconds
#
# Revision: 0
# Processed by: cddbd v1.5.2PL0 Copyright (c) Steve Scherf et al.
# Submitted via: EZCDAudioConverter 5.0.5.1
#
DISCID=03127011
DTITLE=Pet Shop Boys - C163
DYEAR=1900
DGENRE=
TTITLE0=In The Night (7" Edit Version)
TTITLE1=Brick England (Radio Edit)
TTITLE2=Somewhere (Radio Edit)
TTITLE3=Burn (Russia TV)
TTITLE4=It´s A Sin (Russia TV)
TTITLE5=Go West (Live Russia Radio)
TTITLE6=It´s a Sin (Live Russia Radio)
TTITLE7=Say It To Me (Myke Rossi Remix)
TTITLE8=Say It To Me (Cristian Poow Vocal Mix)
TTITLE9=Say It To Me (Cristian Poow Dub Mix)
TTITLE10=The Pop Kids (Jared Jones Radio Mix)
TTITLE11=The Pop Kids (Jared Jones Club Mix)
TTITLE12=The Pop Kids (Jared Jones Dub)
TTITLE13=Vocal (Ivan Gomez Remix Radio Edit Mix)
TTITLE14=Vocal (Ivan Gomez and Nacho Chapado Mix) OFFICIAL REMIX SC CUT
TTITLE15=Vocal (Emjae Remix)
TTITLE16=West End Girls (5.23min Edit)
EXTD=
EXTT0=
EXTT1=
EXTT2=
EXTT3=
EXTT4=
EXTT5=
EXTT6=
EXTT7=
EXTT8=
EXTT9=
EXTT10=
EXTT11=
EXTT12=
EXTT13=
EXTT14=
EXTT15=
EXTT16=
PLAYORDER=
